<?xml version="1.0" encoding="UTF-8"?>
<svg xmlns="http://www.w3.org/2000/svg" xmlns:xlink="http://www.w3.org/1999/xlink" viewBox="0 0 48 48" version="1.1" width="48px" height="48px">
<g id="surface1">
<path style=" fill:#0288D1;" d="M 42 37 C 42 39.761719 39.761719 42 37 42 L 11 42 C 8.238281 42 6 39.761719 6 37 L 6 11 C 6 8.238281 8.238281 6 11 6 L 37 6 C 39.761719 6 42 8.238281 42 11 Z "/>
<path style=" fill:#FFFFFF;" d="M 33.183594 27.359375 C 35.265625 29.308594 35.699219 30.261719 35.769531 30.378906 C 36.628906 31.824219 34.816406 31.9375 34.816406 31.9375 L 31.34375 31.988281 C 31.34375 31.988281 30.59375 32.136719 29.613281 31.453125 C 28.3125 30.554688 26.535156 28.210938 25.582031 28.515625 C 24.613281 28.824219 24.921875 31.28125 24.921875 31.28125 C 24.921875 31.28125 24.929688 31.582031 24.710938 31.824219 C 24.46875 32.078125 24 31.980469 24 31.980469 L 23 31.980469 C 23 31.980469 19.292969 31.996094 16.269531 28.816406 C 12.976563 25.351563 10.222656 18.871094 10.222656 18.871094 C 10.222656 18.871094 10.054688 18.460938 10.234375 18.242188 C 10.441406 17.996094 11 18 11 18 L 14.714844 18 C 14.714844 18 15.0625 18.046875 15.3125 18.234375 C 15.523438 18.386719 15.636719 18.675781 15.636719 18.675781 C 15.636719 18.675781 16.085938 19.882813 16.882813 21.273438 C 18.433594 23.984375 19.15625 24.578125 19.683594 24.285156 C 20.449219 23.859375 20.21875 20.453125 20.21875 20.453125 C 20.21875 20.453125 20.234375 19.214844 19.832031 18.664063 C 19.519531 18.234375 18.9375 18.109375 18.679688 18.074219 C 18.46875 18.050781 18.8125 17.558594 19.257813 17.339844 C 19.925781 17.011719 21.109375 16.988281 22.503906 17.003906 C 23.589844 17.015625 24 17 24 17 C 25.28125 17.3125 24.847656 18.523438 24.847656 21.414063 C 24.847656 22.34375 24.679688 23.648438 25.34375 24.078125 C 25.628906 24.269531 26.652344 24.296875 28.390625 21.308594 C 29.21875 19.890625 29.871094 18.558594 29.871094 18.558594 C 29.871094 18.558594 30.011719 18.257813 30.21875 18.132813 C 30.4375 18 30.726563 18 30.726563 18 L 34.636719 18.019531 C 34.636719 18.019531 35.8125 17.871094 36 18.410156 C 36.199219 18.972656 35.519531 19.957031 33.925781 22.109375 C 31.300781 25.644531 31.007813 25.316406 33.183594 27.359375 Z "/>
</g>
</svg>
